<svg xmlns="http://www.w3.org/2000/svg">
    <svg id="code-tags" xmlns="http://www.w3.org/2000/svg" xmlns:xlink="http://www.w3.org/1999/xlink" viewBox="0 0 522.468 522.469">
        <path d="M325.762,70.513l-17.706-4.854c-2.279-0.76-4.524-0.521-6.707,0.715c-2.19,1.237-3.669,3.094-4.429,5.568L190.426,440.53
            c-0.76,2.475-0.522,4.809,0.715,6.995c1.237,2.19,3.09,3.665,5.568,4.425l17.701,4.856c2.284,0.766,4.521,0.526,6.71-0.712
            c2.19-1.243,3.666-3.094,4.425-5.564L332.042,81.936c0.759-2.474,0.523-4.808-0.716-6.999
            C330.088,72.747,328.237,71.272,325.762,70.513z"/>
        <path d="M166.167,142.465c0-2.474-0.953-4.665-2.856-6.567l-14.277-14.276c-1.903-1.903-4.093-2.857-6.567-2.857
            s-4.665,0.955-6.567,2.857L2.856,254.666C0.95,256.569,0,258.759,0,261.233c0,2.474,0.953,4.664,2.856,6.566l133.043,133.044
            c1.902,1.906,4.089,2.854,6.567,2.854s4.665-0.951,6.567-2.854l14.277-14.268c1.903-1.902,2.856-4.093,2.856-6.57
            c0-2.471-0.953-4.661-2.856-6.563L51.107,261.233l112.204-112.201C165.217,147.13,166.167,144.939,166.167,142.465z"/>
        <path d="M519.614,254.663L386.567,121.619c-1.902-1.902-4.093-2.857-6.563-2.857c-2.478,0-4.661,0.955-6.57,2.857l-14.271,14.275
            c-1.902,1.903-2.851,4.09-2.851,6.567s0.948,4.665,2.851,6.567l112.206,112.204L359.163,373.442
            c-1.902,1.902-2.851,4.093-2.851,6.563c0,2.478,0.948,4.668,2.851,6.57l14.271,14.268c1.909,1.906,4.093,2.854,6.57,2.854
            c2.471,0,4.661-0.951,6.563-2.854L519.614,267.8c1.903-1.902,2.854-4.096,2.854-6.57
            C522.468,258.755,521.517,256.565,519.614,254.663z"/>
    </svg>

    <svg id="email" xmlns="http://www.w3.org/2000/svg" xmlns:xlink="http://www.w3.org/1999/xlink" viewBox="0 0 512 512">
        <path d="M467,61H45C20.218,61,0,81.196,0,106v300c0,24.72,20.128,45,45,45h422c24.72,0,45-20.128,45-45V106
            C512,81.28,491.872,61,467,61z M460.786,91L256.954,294.833L51.359,91H460.786z M30,399.788V112.069l144.479,143.24L30,399.788z
                M51.213,421l144.57-144.57l50.657,50.222c5.864,5.814,15.327,5.795,21.167-0.046L317,277.213L460.787,421H51.213z M482,399.787
            L338.213,256L482,112.212V399.787z"/>
    </svg>

    <svg id="search" xmlns="http://www.w3.org/2000/svg" xmlns:xlink="http://www.w3.org/1999/xlink" viewBox="0 0 478.208 478.208">
		<path d="M473.418,449.285L303.28,279.148c59.759-73.087,48.954-180.779-24.132-240.538S98.369-10.344,38.61,62.742
			S-10.344,243.521,62.742,303.28c62.953,51.473,153.453,51.473,216.406,0l170.138,170.138c6.78,6.548,17.584,6.36,24.132-0.42
			C479.805,466.384,479.805,455.899,473.418,449.285z M171.218,307.751c-75.37-0.085-136.449-61.163-136.533-136.533
			c0-75.405,61.128-136.533,136.533-136.533s136.533,61.128,136.533,136.533S246.623,307.751,171.218,307.751z"/>
    </svg>

    <svg id="server" xmlns="http://www.w3.org/2000/svg" xmlns:xlink="http://www.w3.org/1999/xlink" viewBox="0 0 407.005 407.005">
		<path d="M305.178,15.32C277.876,5.439,241.761,0,203.522,0S129.14,5.439,101.837,15.32C62.754,29.464,54.503,47.574,54.503,60.275
			v286.45c0,12.707,8.24,30.821,47.32,44.962c27.3,9.876,63.412,15.316,101.661,15.316c22.453,0.077,44.864-1.935,66.945-6.008
			c52.129-10,82.074-29.783,82.074-54.27V60.275C352.503,47.574,344.261,29.464,305.178,15.32z M108.671,34.125
			C133.847,25.015,167.526,20,203.503,20c35.977,0,69.656,5.018,94.832,14.129c25.137,9.1,34.093,19.473,34.093,26.149
			c0,6.676-8.956,17.048-34.093,26.145v-0.001c-25.176,9.112-58.854,14.129-94.832,14.129c-35.978,0-69.656-5.017-94.832-14.129
			c-25.137-9.1-34.093-19.472-34.093-26.148S83.534,43.223,108.671,34.125z M332.503,346.725c0,5.414-5.7,11.856-15.581,17.675
			c-12.04,7.093-29.436,12.955-50.272,16.953c-20.825,3.837-41.962,5.729-63.138,5.65c-35.987,0-69.71-5.016-94.879-14.123
			c-25.13-9.094-34.13-19.474-34.13-26.155v-64.408c8.524,5.579,17.699,10.094,27.32,13.446
			c27.3,9.876,63.412,15.316,101.661,15.316c38.249,0,74.394-5.44,101.69-15.316c9.623-3.352,18.801-7.867,27.329-13.446V346.725z
				M332.503,250.8c0,6.681-8.993,17.061-34.125,26.155c-25.169,9.107-58.869,14.123-94.856,14.123s-69.715-5.016-94.884-14.123
			c-25.135-9.093-34.135-19.473-34.135-26.155v-63.746c8.524,5.579,17.699,10.094,27.32,13.446
			c27.3,9.876,63.412,15.315,101.661,15.315c38.249,0,74.394-5.439,101.69-15.315c9.623-3.352,18.801-7.867,27.329-13.446V250.8z
				M332.503,155.538c0,6.681-8.993,17.062-34.125,26.155v-0.001c-25.169,9.107-58.869,14.122-94.856,14.122
			s-69.719-5.014-94.884-14.122c-25.135-9.092-34.135-19.473-34.135-26.154V91.782c8.526,5.579,17.702,10.095,27.324,13.447
			c27.3,9.881,63.418,15.323,101.657,15.323c38.239,0,74.382-5.442,101.685-15.323c9.625-3.352,18.804-7.868,27.334-13.447V155.538z
			"/>
		<path d="M226.503,146.5h-46c-5.523,0-10,4.477-10,10s4.477,10,10,10h46c5.523,0,10-4.477,10-10S232.025,146.5,226.503,146.5z"/>
		<path d="M226.503,240.5h-46c-5.523,0-10,4.477-10,10c0,5.523,4.477,10,10,10h46c5.523,0,10-4.477,10-10
			C236.503,244.977,232.025,240.5,226.503,240.5z"/>
		<path d="M226.503,337.5h-46c-5.523,0-10,4.477-10,10c0,5.523,4.477,10,10,10h46c5.523,0,10-4.477,10-10
			C236.503,341.977,232.025,337.5,226.503,337.5z"/>
    </svg>
</svg>