<svg id="Lager_1" data-name="Lager 1" xmlns="http://www.w3.org/2000/svg" viewBox="0 0 1472.31 1172.72"><defs><style>.cls-1{fill:#d2d2d2;}.cls-2{fill:#f4f4f4;}.cls-3{fill:#2b2b2b;}.cls-4{fill:#b1b1b1;}.cls-5{fill:#fff;fill-opacity:0.08;}</style></defs><title>iMac</title><rect class="cls-1" x="569.55" y="896.65" width="333.15" height="269.45"/><path class="cls-2" d="M1763,2615.25s80.6,5.52,247.31,5.52c165.66,0,247.31-5.52,247.31-5.52a8.47,8.47,0,0,1,4.23,6.6c0,2.38-4.23,6.6-4.23,6.6s-329.73-1.58-494.65,0c0,0-4.23-4.22-4.23-6.6a8.47,8.47,0,0,1,4.23-6.6h0Z" transform="translate(-1274.18 -1455.73)"/><rect class="cls-2" y="0.01" width="1472.31" height="981.54" rx="53.73" ry="53.73"/><path class="cls-3" d="M1327.91,1455.74a53.61,53.61,0,0,0-53.73,53.73v754.44H2746.49V1509.47a53.61,53.61,0,0,0-53.74-53.73H1327.91Z" transform="translate(-1274.18 -1455.73)"/><circle class="cls-4" cx="736.15" cy="894.88" r="42.99"/><path class="cls-5" d="M1327.91,1455.74a53.61,53.61,0,0,0-53.73,53.73v754.44L2725.8,1467.09a53.52,53.52,0,0,0-33-11.36H1327.91Z" transform="translate(-1274.18 -1455.73)"/></svg>